<?xml version="1.0" encoding="utf-8"?>
<!-- Generator: Adobe Illustrator 21.1.0, SVG Export Plug-In . SVG Version: 6.00 Build 0)  -->
<svg version="1.1" id="Слой_1" xmlns="http://www.w3.org/2000/svg" xmlns:xlink="http://www.w3.org/1999/xlink" x="0px" y="0px"
	 viewBox="0 0 305 305" style="enable-background:new 0 0 305 305;" xml:space="preserve">
<style type="text/css">
	.st0{fill:#72BDD2;}
	.st1{fill:#FD9131;}
	.st2{fill:#FFB600;}
	.st3{fill:#23100B;}
	.st4{fill:#CF2A12;}
	.st5{fill:#FF5B67;}
	.st6{fill:#F4B387;}
	.st7{fill:#1C1C1C;}
	.st8{fill:#E2A074;}
	.st9{fill:#DB9463;}
	.st10{opacity:0.4;fill:#EFB4B4;enable-background:new    ;}
	.st11{fill:#33201A;}
	.st12{fill:#FFFFFF;}
	.st13{fill:#604943;}
	.st14{clip-path:url(#SVGID_2_);}
	.st15{fill:#211C2A;}
	.st16{clip-path:url(#SVGID_4_);}
	.st17{clip-path:url(#SVGID_6_);}
	.st18{clip-path:url(#SVGID_8_);}
	.st19{clip-path:url(#SVGID_10_);}
	.st20{clip-path:url(#SVGID_12_);}
	.st21{fill:#1E1E1E;}
	.st22{fill:#000D13;}
	.st23{fill:#C16F38;}
	.st24{fill:none;}
	.st25{fill:#0049A8;}
	.st26{fill:#0057AA;}
</style>
<circle class="st0" cx="152.3" cy="153" r="152.2"/>
<path class="st1" d="M271.1,167.7l-26.4,14.7l3.8,29.4c0,0,3.1,27.2,11.3,49.5c16.1-15.9,28.6-36.2,36.1-57.7
	C291.2,192.4,283.2,177.3,271.1,167.7z"/>
<path class="st2" d="M271.1,167.7c0,0-11.6-11.1-39.5-12.4l-20.1-1.2l-14.5,0.3l-14.5-0.3l-20.1,1.2c-27.9,1.3-39.5,12.4-39.5,12.4
	s3.3,15.9,17.1,35.9c0,0-4.6,42.3-9.4,60.3c-3.6,13.2,30.1,19.3,54.4,21.9c0.8,6.1,2,11.2,3.9,15.1c28.4-6.9,53.7-21.7,73.3-42
	c-4.4-19.8-8.2-55.2-8.2-55.2C267.8,183.6,271.1,167.7,271.1,167.7z"/>
<path class="st3" d="M89.8,121.1c0,0-38.6,5-36.2,26.5c3.2,29.2,67.4,39.7,76,1.2C129.6,148.8,129.8,124.4,89.8,121.1z"/>
<path class="st1" d="M231.7,155.3c0,0-10.4-9.8-19.2-5.3l-15.6,4.7l-15.6-4.7c-8.8-4.5-19.2,5.3-19.2,5.3
	c5.2,14.8,20,22.4,34.8,22.7l0,0l0,0l0,0l0,0C211.6,177.6,226.5,170,231.7,155.3z"/>
<path class="st4" d="M58.4,211.4L84.3,169l-25.7,1.8c-23.5,7.4-36,34.3-41.6,52c10.2,20,24.9,37.3,42.5,50.9
	C63,245.9,58.4,211.4,58.4,211.4z"/>
<path class="st5" d="M104.5,297.4c0,0,55.3-19.2,39.2-74.8c-7.5-25.8-17.1-51.9-17.1-51.9l-14.4-4.1L71.3,167l-12.7,3.7
	c0,0-10.2,20.2-10.2,47.1c0,15.3,5.3,39.5,9,54.3C67.6,280.3,78,286.6,90,292C90.6,292,104.5,297.4,104.5,297.4z"/>
<path class="st6" d="M75.2,143.9l-2.1,30.8c0,0,7.5,5.4,17,5.4c7.4,0,18-5.4,18-5.4l-2.5-31.2L75.2,143.9z"/>
<path class="st7" d="M151.7,81.5c-0.6-6.9-1.3-13.8-1.9-20.6c-0.9-9.5-1.7-19.4,2.2-28.1c2.7-6,7.5-10.9,12.5-15.2
	c9.4-8,19.9-12.7,32.3-13.6c17.6-1.2,37.6,9.2,42.8,26c0,0-5.4-1.1-7.1-0.1c8.6,5,14.2,14.5,14.5,24.4c0.1,4.6-0.8,9.2-1.8,13.7
	c-1.6,7.5-3.2,15.1-4.8,22.6"/>
<path class="st6" d="M175.7,122.4l-2.5,37.8c0,0,15.2,6.4,24.9,5.4c10.7-1.1,22.6-9.4,22.6-9.4l-2.4-33.8
	C218.3,122.4,175.7,122.4,175.7,122.4z"/>
<path class="st8" d="M174.1,146.7c0,0,22.1,12.1,46.2,0.7l-1.9-25h-42.8L174.1,146.7z"/>
<path class="st6" d="M160.2,86.2c-2.2-3-4.4-6.1-7.6-8c-3.2-1.8-7.7-2-10.3,0.7c-2.3,2.4-2.4,6.2-2.1,9.6c0.8,8.1,3.8,17,11.1,20.7
	c2.5,1.3,5.5,1.8,8.1,0.7c2.6-1,4.5-3.9,4-6.6"/>
<path class="st9" d="M152.6,84.9c-1.1-0.5-2.4-0.8-3.6-0.3c-1.5,0.7-2.1,2.5-2.3,4.1c-0.6,5.5,2.2,11.2,6.8,14.2
	c0.9,0.6,2.2,1,3,0.3c-0.7-1.1-1.4-2.3-1.8-3.6c-0.4-1.3-0.3-2.7,0.4-3.8c1.3-2,2.8-3.2,2.1-5.9C156.7,87.8,154.7,85.9,152.6,84.9z"
	/>
<path class="st6" d="M236.9,86.6c2.2-3,4.4-6.1,7.6-8s7.7-2,10.3,0.7c2.3,2.4,2.4,6.2,2.1,9.6c-0.8,8.1-3.8,17-11.1,20.7
	c-2.5,1.3-5.5,1.8-8.1,0.7c-2.6-1-4.5-3.9-4-6.6"/>
<path class="st9" d="M244.5,85.3c1.1-0.5,2.4-0.8,3.6-0.3c1.5,0.7,2.1,2.5,2.3,4.1c0.6,5.5-2.2,11.2-6.8,14.2c-0.9,0.6-2.2,1-3,0.3
	c0.7-1.1,1.4-2.3,1.8-3.6c0.4-1.3,0.3-2.7-0.4-3.8c-1.3-2-2.8-3.2-2.1-5.9C240.4,88.2,242.4,86.3,244.5,85.3z"/>
<path class="st6" d="M237.1,44.6C229.8,34,198,25,198,25l-0.3,7.8c0,0-32.1,1.2-39.4,11.9c-7.2,10.7-5.1,52.6,1.7,71.1
	c3.9,10.6,18.2,22.2,21,23.7c8.4,4.6,28.2,3,34.6,0.5c5.1-2.1,16-13.6,19.9-24.2C242.2,97.2,244.3,55.3,237.1,44.6z"/>
<path class="st9" d="M207.8,116.5l2.7,2.9c-6.5,4.2-15.9,4.3-22.9,0l2.6-2.9c0,0-5.8-0.3-5.3,6l1.5-1.9c0,0,3.8,3.3,12.2,3.5l0,0
	c0.1,0,0.3,0,0.4,0c0.1,0,0.3,0,0.4,0l0,0c8.4-0.2,12.2-3.5,12.2-3.5l1.5,1.9C213.7,116.2,207.8,116.5,207.8,116.5z"/>
<ellipse class="st10" cx="173.3" cy="96.4" rx="9.8" ry="6.1"/>
<ellipse class="st10" cx="224.3" cy="96.4" rx="9.8" ry="6.1"/>
<path class="st11" d="M219.4,65.9c-1.1,0.4-2.2-0.4-2.2-1.5v-3c0-0.7,0.4-1.3,1-1.5c3.3-1.3,16.2,0.6,18.1,4.2
	c0.4,0.3,0.6,0.8,0.6,1.3l0,0C236.9,66.7,229.2,62.2,219.4,65.9z"/>
<path class="st11" d="M162.1,65.4L162.1,65.4c0-0.5,0.2-1,0.6-1.3c1.9-3.6,14.8-5.5,18.1-4.2c0.6,0.2,1,0.8,1,1.5v3
	c0,1.1-1.1,1.9-2.2,1.5C169.8,62.2,162.1,66.7,162.1,65.4z"/>
<path class="st8" d="M74,161.5c0,0,14.5,9.3,33.1,0l-1.5-18.1l-30.4,0.5L74,161.5z"/>
<path class="st3" d="M92.5,28.2c0,0-53,1.4-53.7,43.9s15.8,68.4,15.8,68.4l40.5-41.9L92.5,28.2z"/>
<path class="st3" d="M92.4,28.2c0,0,53.4,1.4,54.1,43.9s-15.8,68.4-15.8,68.4L90.3,98.6L92.4,28.2z"/>
<path class="st6" d="M53.8,108.8c0.1,0.3,0.6-0.2,0.5-0.5c-0.8-6.2-4.9-11.8-10.6-14.5c-1.1-0.5-2.3-0.9-3.5-0.8
	c-2.5,0.2-4.4,2.5-5.3,4.9c-2.2,5.6-0.8,12.3,3.2,16.8c4,4.5,10.4,6.5,16.3,5.7"/>
<path class="st12" d="M38.4,106"/>
<path class="st9" d="M43.3,100c-2.3,0-4.2,2.2-4.4,4.5s0.8,4.5,2.3,6.3c2.2,2.8,5.5,4.8,9,5.6c-1.1-0.2-4-3.7-4.1-4.8
	c-0.1-2.6,2.5-2.4,3.8-3.8C52.7,105,46.7,100,43.3,100z"/>
<path class="st6" d="M131.1,108.8c-0.1,0.3-0.6-0.2-0.5-0.5c0.8-6.2,4.9-11.8,10.6-14.5c1.1-0.5,2.3-0.9,3.5-0.8
	c2.5,0.2,4.4,2.5,5.3,4.9c2.2,5.6,0.8,12.3-3.2,16.8c-4,4.5-10.4,6.5-16.3,5.7"/>
<path class="st9" d="M141.6,100c2.3,0,4.2,2.2,4.4,4.5s-0.8,4.5-2.3,6.3c-2.2,2.8-5.5,4.8-9,5.6c1.1-0.2,4-3.7,4.1-4.8
	c0.1-2.6-2.5-2.4-3.8-3.8C132.2,105,138.3,100,141.6,100z"/>
<path class="st6" d="M135.1,86.5c0-47.1-42.6-45.3-42.6-45.3s-42.6-1.8-42.6,45.3c0,24.5,3.1,39.7,8.6,47.9s20.4,19.8,24.3,21.3
	c8.6,3.3,8.1,3.1,16.7-0.2c3.9-1.5,21.5-12,27-20.2C132,127.2,135.1,111,135.1,86.5z"/>
<path class="st13" d="M106.8,86c0,0,17.5,0.9,22.9,6.2c0,0-0.1-6.3-12.4-9.1C108.1,81,106.8,86,106.8,86z"/>
<path class="st13" d="M70.9,83.1c-12.3,2.8-12.4,9.1-12.4,9.1c5.4-5.3,22.9-6.2,22.9-6.2S80.1,81,70.9,83.1z"/>
<path class="st7" d="M175.7,137.2c-8.3-4.6-18.3-4.6-26.6,0c-8.2-4.6-18.2-4.6-26.5,0c-14.9,7.7-32.2,19.9-27,41.8s6,34.5,16.9,48.3
	l36.8-13.3l36.6,13.4c11-13.9,11.7-26.3,16.9-48.3C207.8,157.1,190.5,145,175.7,137.2z"/>
<g>
	<path class="st6" d="M136.5,267.1c0,1.9,11.6,6.6,23,0v-18.7h-23V267.1z"/>
	<path class="st8" d="M136.5,255.5c0,0,11.9,8.1,23,0.2l0.2-7.4l-23.2-0.1V255.5z"/>
</g>
<path class="st6" d="M108.3,208c-1-1.6-2.3-3-3.6-4.4c-1.3-1.4-3-2.9-5-2.6c-2.9,0.3-4.3,3.6-4.3,6.3c-0.1,4,1.3,7.9,3.9,10.9
	c0.9,1.1,2.1,2,3.4,2.4c2,0.4,4,0.1,5.7-1.1c1.6-1.1,3-2.7,4-4.4"/>
<path class="st9" d="M108.2,213.9c-1.1-3.3-2.6-6.9-5.6-8.2c-1.4-0.6-3.3-0.6-4,0.7c-0.3,0.6-0.3,1.3-0.1,1.9c0.3,2.6,1.3,4.9,3,6.9
	c0.9,1.1,2.1,1.9,3.7,2c1.4-0.1,2.7-1.9,1.9-3"/>
<path class="st6" d="M189.7,208c1-1.6,2.3-3,3.6-4.4s3-2.9,4.9-2.6c2.9,0.3,4.3,3.6,4.4,6.3c0.1,4-1.3,7.9-4,10.9
	c-0.9,1.1-2.1,2-3.4,2.4c-2,0.4-4,0.1-5.7-1.1c-1.6-1.1-3-2.7-4-4.4"/>
<path class="st9" d="M190,213.9c1.1-3.3,2.6-6.9,5.6-8.2c1.4-0.6,3.3-0.6,4,0.7c0.3,0.6,0.3,1.1,0.1,1.9c-0.3,2.6-1.3,4.9-3,6.9
	c-0.9,1.1-2.1,1.9-3.7,2c-1.4-0.1-2.7-1.9-1.9-3"/>
<path class="st6" d="M189.7,172.7c-8.4-11.4-40.6-15.2-40.6-15.2s-32,3.7-40.5,15.2c-8.4,11.4-4.3,31.5,3,54.8s24.2,23,24.2,23l0,0
	c8.2,5.1,18.4,5.1,26.6,0l0,0c0,0,17,0.3,24.2-23C193.7,204.2,198.1,184.1,189.7,172.7z"/>
<path class="st7" d="M98.3,189.9c0,0,15.2,5.1,32.3-16.3l-4,15c0,0,13.6-4.7,18-17.9c0,0-2.3,18.3-8,24.6c0,0,14.2-5.1,19.9-24.6
	v17.9c0,0,8-8.3,9.6-17.9c0,0,0.6,5.4,16.3,17.9c0,0-3.3-5,0-15c0,0,4.7,9.4,12.4,21.6c0,0,7.2-23.7-1-33s-50.3-27.3-81.5-4.3
	C98,168.5,98.3,189.9,98.3,189.9z"/>
<path class="st7" d="M149.9,55.4c0,0,12.7,6.4,29.8-15.1l-4,15c0,0,13.6-4.7,18-17.9c0,0-2.3,18.3-8,24.6c0,0,14.2-5.1,19.9-24.6
	v17.9c0,0,8-8.3,9.6-17.9c0,0,0.6,5.4,16.3,17.9c0,0-3.3-5,0-15c0,0,7.8,1.8,15.6,14c0,0,3.3-17.7-16.5-39
	c-8.4-9.1-38-13.8-69.2,9.3C147.2,35.3,149.9,55.4,149.9,55.4z"/>
<ellipse class="st10" cx="124.3" cy="221.6" rx="9.8" ry="5.3"/>
<ellipse class="st10" cx="175.8" cy="221.6" rx="9.8" ry="5.3"/>
<g>
	<g>
		<path class="st12" d="M182.3,206.9c0,0-4.6,8.3-17.7,4.9c0,0-0.4-10.4,3.8-13.3C172.6,195.6,181.2,193.7,182.3,206.9z"/>
		<g>
			<g>
				<g>
					<g>
						<g>
							<defs>
								<path id="SVGID_1_" d="M183.2,208.2c0,0-5.5,7-18.6,3.6c0,0-0.4-10.4,3.8-13.3C172.6,195.6,182.1,195,183.2,208.2z"/>
							</defs>
							<clipPath id="SVGID_2_">
								<use xlink:href="#SVGID_1_"  style="overflow:visible;"/>
							</clipPath>
							<g class="st14">
								<g>
									<g>
										
											<ellipse transform="matrix(2.383902e-02 -0.9997 0.9997 2.383902e-02 -35.5286 374.315)" class="st15" cx="173.9" cy="205.4" rx="6.3" ry="6.3"/>
									</g>
								</g>
								
									<ellipse transform="matrix(0.9935 -0.114 0.114 0.9935 -21.9607 21.5799)" class="st12" cx="177.7" cy="202.8" rx="2.5" ry="2.5"/>
							</g>
						</g>
					</g>
				</g>
			</g>
		</g>
	</g>
	<path class="st6" d="M164.5,211.3c0,0-0.1-9.1,9.3-11c8.9-1.8,8.4,6.5,8.4,6.5s4.6-10.6-0.9-11.5s-10.3-2.2-12.1-1s-6,4-6.4,7.3
		C162.5,205,164.5,211.3,164.5,211.3z"/>
	<path class="st9" d="M163.5,211c0,0-0.6-4.8,4-8.9c3.8-3.3,8.2-3.9,8.2-3.9s-4.4-0.5-9,3.9C162.6,206.1,163.5,211,163.5,211z"/>
</g>
<g>
	<g>
		<path class="st12" d="M123.5,102.5c0,0-4.6,8.3-17.7,4.9c0,0-0.4-10.4,3.8-13.3C113.9,91.2,122.4,89.3,123.5,102.5z"/>
		<g>
			<g>
				<g>
					<g>
						<g>
							<defs>
								<path id="SVGID_3_" d="M124.4,103.8c0,0-5.5,7-18.6,3.6c0,0-0.4-10.4,3.8-13.3C113.9,91.2,123.3,90.6,124.4,103.8z"/>
							</defs>
							<clipPath id="SVGID_4_">
								<use xlink:href="#SVGID_3_"  style="overflow:visible;"/>
							</clipPath>
							<g class="st16">
								<g>
									<g>
										
											<ellipse transform="matrix(2.383902e-02 -0.9997 0.9997 2.383902e-02 11.5019 213.6596)" class="st15" cx="115.2" cy="100.9" rx="6.3" ry="6.3"/>
									</g>
								</g>
								
									<ellipse transform="matrix(0.9935 -0.114 0.114 0.9935 -10.454 14.1967)" class="st12" cx="118.9" cy="98.5" rx="2.5" ry="2.5"/>
							</g>
						</g>
					</g>
				</g>
			</g>
		</g>
	</g>
	<path class="st6" d="M105.8,107c0,0-0.1-9.1,9.3-11c8.9-1.8,8.4,6.5,8.4,6.5s4.6-10.6-0.9-11.5s-10.3-2.2-12.1-1s-6,4-6.4,7.3
		C103.7,100.6,105.8,107,105.8,107z"/>
	<path class="st9" d="M104.8,106.7c0,0-0.6-4.8,4-8.9c3.8-3.3,8.2-3.9,8.2-3.9s-4.4-0.5-9,3.9C103.8,101.7,104.8,106.7,104.8,106.7z
		"/>
</g>
<g>
	<g>
		<path class="st12" d="M232.4,80.2c0,0-5.1,9.3-19.8,5.4c0,0-0.5-11.6,4.3-14.9C221.6,67.5,231.2,65.5,232.4,80.2z"/>
		<g>
			<g>
				<g>
					<g>
						<g>
							<defs>
								<path id="SVGID_5_" d="M233.4,81.6c0,0-6.1,7.8-20.8,4c0,0-0.5-11.6,4.3-14.9C221.6,67.5,232.2,66.9,233.4,81.6z"/>
							</defs>
							<clipPath id="SVGID_6_">
								<use xlink:href="#SVGID_5_"  style="overflow:visible;"/>
							</clipPath>
							<g class="st17">
								<g>
									<g>
										
											<ellipse transform="matrix(2.383902e-02 -0.9997 0.9997 2.383902e-02 139.3835 299.6627)" class="st15" cx="223.1" cy="78.5" rx="7" ry="7"/>
									</g>
								</g>
								
									<ellipse transform="matrix(0.9935 -0.114 0.114 0.9935 -7.2803 26.4933)" class="st12" cx="228" cy="76.9" rx="2.8" ry="2.8"/>
							</g>
						</g>
					</g>
				</g>
			</g>
		</g>
	</g>
	<path class="st6" d="M212.6,85.2c0,0-0.2-10.2,10.4-12.3c10-2,9.4,7.3,9.4,7.3s5.2-11.9-1-12.8s-11.5-2.5-13.6-1.1
		c-2,1.3-6.7,4.4-7.1,8.1S212.6,85.2,212.6,85.2z"/>
	<path class="st9" d="M211.5,84.8c0,0-0.7-5.4,4.5-9.9c4.3-3.7,9.2-4.3,9.2-4.3s-5-0.5-10.1,4.3C210.4,79.3,211.5,84.8,211.5,84.8z"
		/>
</g>
<g>
	<g>
		<path class="st12" d="M165.9,80.2c0,0,5.1,9.3,19.8,5.4c0,0,0.5-11.6-4.3-14.9C176.7,67.5,167.1,65.5,165.9,80.2z"/>
		<g>
			<g>
				<g>
					<g>
						<g>
							<defs>
								<path id="SVGID_7_" d="M164.9,81.6c0,0,6.1,7.8,20.8,4c0,0,0.5-11.6-4.3-14.9C176.7,67.5,166.1,66.9,164.9,81.6z"/>
							</defs>
							<clipPath id="SVGID_8_">
								<use xlink:href="#SVGID_7_"  style="overflow:visible;"/>
							</clipPath>
							<g class="st18">
								<g>
									<g>
										
											<ellipse transform="matrix(0.9997 -2.383902e-02 2.383902e-02 0.9997 -1.8215 4.1988)" class="st15" cx="175.2" cy="78.5" rx="7" ry="7"/>
									</g>
								</g>
								
									<ellipse transform="matrix(0.114 -0.9935 0.9935 0.114 81.9609 248.1959)" class="st12" cx="180.1" cy="78.1" rx="2.8" ry="2.8"/>
							</g>
						</g>
					</g>
				</g>
			</g>
		</g>
	</g>
	<path class="st6" d="M185.7,85.2c0,0,0.2-10.2-10.4-12.3c-10-2-9.4,7.3-9.4,7.3s-5.2-11.9,1-12.8s11.5-2.5,13.6-1.1
		c2,1.3,6.7,4.4,7.1,8.1S185.7,85.2,185.7,85.2z"/>
	<path class="st9" d="M186.9,84.8c0,0,0.7-5.4-4.5-9.9c-4.3-3.7-9.2-4.3-9.2-4.3s5-0.5,10.1,4.3C187.9,79.3,186.9,84.8,186.9,84.8z"
		/>
</g>
<g>
	<g>
		<path class="st12" d="M132,198.4c4.2,2.9,3.8,13.3,3.8,13.3c-13.1,3.4-17.7-4.9-17.7-4.9C119.2,193.7,127.7,195.6,132,198.4z"/>
		<g>
			<g>
				<g>
					<g>
						<g>
							<defs>
								<path id="SVGID_9_" d="M132,198.4c4.2,2.9,3.8,13.3,3.8,13.3c-13.1,3.4-18.6-3.6-18.6-3.6C118.3,195,127.7,195.6,132,198.4z
									"/>
							</defs>
							<clipPath id="SVGID_10_">
								<use xlink:href="#SVGID_9_"  style="overflow:visible;"/>
							</clipPath>
							<g class="st19">
								<g>
									<g>
										
											<ellipse transform="matrix(0.9997 -2.383902e-02 2.383902e-02 0.9997 -4.8582 3.0715)" class="st15" cx="126.4" cy="205.3" rx="6.3" ry="6.3"/>
									</g>
								</g>
								
									<ellipse transform="matrix(0.114 -0.9935 0.9935 0.114 -85.9087 311.0449)" class="st12" cx="131.4" cy="203.7" rx="2.5" ry="2.5"/>
							</g>
						</g>
					</g>
				</g>
			</g>
		</g>
	</g>
	<path class="st6" d="M135.8,211.3c0,0,0.1-9.1-9.3-11c-8.9-1.8-8.4,6.5-8.4,6.5s-4.6-10.6,0.9-11.5s10.3-2.2,12.1-1s6,4,6.4,7.3
		C137.9,205,135.8,211.3,135.8,211.3z"/>
	<path class="st9" d="M136.8,211c0,0,0.6-4.8-4-8.9c-3.8-3.3-8.2-3.9-8.2-3.9s4.4-0.5,9,3.9C137.8,206.1,136.8,211,136.8,211z"/>
</g>
<g>
	<g>
		<path class="st12" d="M76,94.1c4.2,2.9,3.8,13.3,3.8,13.3c-13.1,3.4-17.7-4.9-17.7-4.9C63.2,89.3,71.7,91.2,76,94.1z"/>
		<g>
			<g>
				<g>
					<g>
						<g>
							<defs>
								<path id="SVGID_11_" d="M76,94.1c4.2,2.9,3.8,13.3,3.8,13.3c-13.1,3.4-18.6-3.6-18.6-3.6C62.3,90.6,71.7,91.2,76,94.1z"/>
							</defs>
							<clipPath id="SVGID_12_">
								<use xlink:href="#SVGID_11_"  style="overflow:visible;"/>
							</clipPath>
							<g class="st20">
								<g>
									<g>
										
											<ellipse transform="matrix(0.9997 -2.383902e-02 2.383902e-02 0.9997 -2.3877 1.7069)" class="st15" cx="70.4" cy="101" rx="6.3" ry="6.3"/>
									</g>
								</g>
								
									<ellipse transform="matrix(0.114 -0.9935 0.9935 0.114 -31.8115 162.8295)" class="st12" cx="75.4" cy="99.3" rx="2.5" ry="2.5"/>
							</g>
						</g>
					</g>
				</g>
			</g>
		</g>
	</g>
	<path class="st6" d="M79.8,107c0,0,0.1-9.1-9.3-11c-8.9-1.8-8.4,6.5-8.4,6.5S57.5,91.9,62.9,91c5.5-0.9,10.3-2.2,12.1-1
		c1.8,1.2,6,4,6.4,7.3C81.9,100.6,79.8,107,79.8,107z"/>
	<path class="st9" d="M80.8,106.7c0,0,0.6-4.8-4-8.9c-3.8-3.3-8.2-3.9-8.2-3.9s4.4-0.5,9,3.9C81.8,101.7,80.8,106.7,80.8,106.7z"/>
</g>
<g>
	<path class="st9" d="M150.4,228.7c4.4-0.2,4.7-3.2,4.7-3.2c-0.1-0.1-3.2,1.3-4.4,1.4c-1.9,0.1-4.5-1.2-5.7-1.6
		C145.2,226.8,147.4,228.8,150.4,228.7z"/>
	<path class="st9" d="M157.7,223.1c1,0.2,2.7,1.4,2.1,3.2c-0.7,2.2-2.2,2.1-2.6,1.9c0-0.1,1.2-1.2,1.6-2.3
		C159.4,224.4,158.1,223.4,157.7,223.1z"/>
	<path class="st9" d="M142.6,223.1c-1,0.2-2.7,1.4-2.1,3.2c0.7,2.2,2.2,2.1,2.6,1.9c0-0.1-1.2-1.2-1.6-2.3
		C140.9,224.4,142.3,223.4,142.6,223.1z"/>
</g>
<g>
	<path class="st9" d="M92.8,123c4.4-0.2,4.7-3.2,4.7-3.2c-0.1-0.1-3.2,1.3-4.4,1.4c-1.9,0.1-4.5-1.2-5.7-1.6
		C87.5,121,89.7,123.1,92.8,123z"/>
	<path class="st9" d="M100.1,117.4c1,0.2,2.7,1.4,2.1,3.2c-0.7,2.2-2.2,2.1-2.6,1.9c0-0.1,1.2-1.2,1.6-2.3
		C101.8,118.7,100.4,117.7,100.1,117.4z"/>
	<path class="st9" d="M85,117.4c-1,0.2-2.7,1.4-2.1,3.2c0.7,2.2,2.2,2.1,2.6,1.9c0-0.1-1.2-1.2-1.6-2.3
		C83.3,118.7,84.6,117.7,85,117.4z"/>
</g>
<g>
	<path class="st9" d="M200.1,104.1c6.6-0.3,7.1-4.8,6.9-4.8c-0.1-0.1-4.7,1.9-6.6,2c-2.9,0.2-6.6-1.8-8.5-2.4
		C192.4,101.3,195.6,104.3,200.1,104.1z"/>
	<path class="st9" d="M211,95.9c1.5,0.3,4,2.1,3.1,4.8c-1.1,3.3-3.2,3.1-3.9,2.9c0-0.2,1.8-1.8,2.4-3.4
		C213.5,97.7,211.5,96.3,211,95.9z"/>
	<path class="st9" d="M188.6,95.9c-1.5,0.3-4,2.1-3.1,4.8c1.1,3.3,3.2,3.1,3.9,2.9c0-0.2-1.8-1.8-2.4-3.4
		C186.1,97.7,188.1,96.3,188.6,95.9z"/>
</g>
<path class="st21" d="M185.1,195.8c0.6-0.8,2.2-2.6,0.3-3.8c-2-1.3-6.4-2.5-9-2.9c-2.2-0.3-3.1,1-2.9,3.6
	C175.5,192.5,183.2,194.5,185.1,195.8z"/>
<path class="st21" d="M115.3,196.8c-0.6-0.8-2.2-2.6-0.3-3.8c2-1.3,6.4-2.5,9-2.9c2.2-0.3,3.1,1,2.9,3.6
	C124.9,193.5,117.1,195.6,115.3,196.8z"/>
<path class="st9" d="M140.6,240.4c3,1.6,6.4,2.4,9.9,2.4c3.1,0,6.1-0.8,8.8-2.4l-0.8-1.1c0,0,2.2-0.3,2.7,2.8l-1.1-1.1
	c-3,1.6-6.3,2.5-9.7,2.7c-3.6-0.2-7.2-1.3-10.5-2.8l-0.9,0.9c0-1.4,1.3-2.7,2.7-2.7L140.6,240.4z"/>
<g>
	<g>
		<path class="st22" d="M126.7,187c-10.9,0-19.8,8.9-19.8,19.8c0,10.9,8.9,19.8,19.8,19.8s19.8-8.9,19.8-19.8
			C146.5,195.8,137.7,187,126.7,187z M126.7,224.2c-9.6,0-17.5-7.8-17.5-17.5c0-9.6,7.8-17.5,17.5-17.5c9.6,0,17.5,7.8,17.5,17.5
			S136.4,224.2,126.7,224.2z"/>
	</g>
	<g>
		<path class="st22" d="M173.3,187c-10.9,0-19.8,8.9-19.8,19.8c0,10.9,8.9,19.8,19.8,19.8c10.9,0,19.8-8.9,19.8-19.8
			C193.1,195.8,184.3,187,173.3,187z M173.3,224.2c-9.6,0-17.5-7.8-17.5-17.5c0-9.6,7.8-17.5,17.5-17.5c9.6,0,17.5,7.8,17.5,17.5
			S183,224.2,173.3,224.2z"/>
	</g>
	<rect x="145.2" y="203.8" class="st22" width="9.4" height="1.8"/>
</g>
<ellipse class="st10" cx="68.8" cy="116.5" rx="10.3" ry="6.1"/>
<ellipse class="st10" cx="119.4" cy="116.5" rx="10.3" ry="6.1"/>
<path class="st23" d="M81.6,136c0,0,6.7-2.9,11.3-0.8c0,0,6.2-2,10.6,0.7c0,0-3.8,6.5-10.6,6.5S81.6,136,81.6,136z"/>
<path class="st9" d="M104.1,133.1l1,2c-4.7,2.6-11.5,2.9-12.8,2.9s-8-0.3-12.7-2.9l1-2c0,0-4.9,1-1.5,4.9l0.5-1.5
	c0,0,5.1,2.8,12.5,2.9l0,0c0.1,0,0.1,0,0.2,0s0.1,0,0.2,0l0,0c7.4-0.1,12.5-2.9,12.5-2.9l0.6,1.5C109,134.1,104.1,133.1,104.1,133.1
	z"/>
<g>
	<path class="st24" d="M152.8,0.8C68.8,0.8,0.6,69,0.6,153c0,84.1,68.2,152.2,152.2,152.2c8.2,0,16.3-0.7,24.2-1.9l-1.6,0.2
		l-6.9-14.3l7-24.8c0,0,14.4,6,16,35.9c65.4-17.1,113.6-76.5,113.6-147.3C305.1,69,236.9,0.8,152.8,0.8z"/>
	<path class="st25" d="M175.5,264.4l-7,24.8l6.9,14.3l1.6-0.2c4.9-0.8,9.7-1.8,14.4-3C189.9,270.3,175.5,264.4,175.5,264.4z"/>
</g>
<g>
	<path class="st24" d="M152.8,0.8C68.8,0.8,0.6,69,0.6,153c0,67.2,43.5,124.2,103.9,144.4c4.4-34.1,19.7-35.2,19.7-35.2l5,25.1
		l-7.3,14.8c10,2.1,20.3,3.1,30.9,3.1C236.9,305.2,305,237,305,153C305.1,69,236.9,0.8,152.8,0.8z"/>
	<path class="st25" d="M124.2,262.2c0,0-15.3,1.1-19.7,35.2c5.7,1.9,11.5,3.5,17.5,4.7l7.3-14.8L124.2,262.2z"/>
</g>
<g>
	<path class="st24" d="M152.8,0.8C68.8,0.8,0.6,69,0.6,153c0,73.3,51.8,134.5,120.9,149l0.8-7.1l-1.3-31.8l13.1-5.3
		c0,0.3,1.9,2,4.4,4.1c6.4,5.3,15.7,5,21.7-0.6l2.3-2.2l12.9,5.3v32.5v6.7C248.7,292.7,305,229.4,305,153.1
		C305.1,69,236.9,0.8,152.8,0.8z"/>
	<path class="st26" d="M175.5,264.4l-12.9-5.3l-2.3,2.2c-6,5.7-15.4,5.9-21.7,0.6c-2.5-2.1-4.4-3.8-4.4-4.1l-13.1,5.3l1.3,31.8
		l-0.8,7.1c10.1,2.1,20.6,3.2,31.4,3.2c7.7,0,15.2-0.6,22.6-1.7v-6.7v-32.4H175.5z"/>
</g>
<path class="st3" d="M75.6,72.6c-0.1-4.6-0.3-9.1-0.4-13.7c3.9,5.9,9.6,10.5,16.1,13c0.1-3.7,0.1-7.3,0.2-11
	c3.7,1.5,6.7,4.4,9.9,6.8c3.2,2.4,7,4.5,11,4.1c0.1-2.5,0.2-5,0.3-7.5c5.2,3.8,9.8,8.3,13.7,13.4c0.6-2.4,0.4-5,0.2-7.5
	c4.3,5,8.2,10.3,11.7,15.8c1.1-9.1-2.8-18-6.7-26.3c-1.3-2.9-2.6-5.8-4.5-8.4c-4.6-6.5-12.1-10.3-19.7-12.8c-8-2.7-16.6-4.3-25-3.1
	C74.6,36.7,61,41.7,60.5,51S66.8,69.7,75.6,72.6z"/>
<g>
	<path class="st7" d="M198.7,106.3c0,0-10.9,1.4-16.2,2.7c-5.4,1.3-6,7.1-6,7.1c0.9-0.8,4.2-1,6.5-1l1.4-2.3l0.4,2.3
		c0.3,0,0.5,0,0.5,0c0.3,0,0.5,0,0.7,0l0.3-1.3l0.7,1.3C201.7,115.1,198.7,106.3,198.7,106.3z"/>
</g>
<g>
	<path class="st7" d="M199.3,106.3c0,0,10.9,1.4,16.2,2.7c5.4,1.3,6,7.1,6,7.1c-0.9-0.8-4.2-1-6.5-1l-1.4-2.3l-0.4,2.3
		c-0.3,0-0.5,0-0.5,0c-0.3,0-0.5,0-0.7,0l-0.3-1.3l-0.7,1.3C196.4,115.1,199.3,106.3,199.3,106.3z"/>
</g>
</svg>
