<?xml version="1.0" encoding="utf-8"?>
<!-- Generator: Adobe Illustrator 21.1.0, SVG Export Plug-In . SVG Version: 6.00 Build 0)  -->
<svg version="1.1" id="Слой_1" xmlns="http://www.w3.org/2000/svg" xmlns:xlink="http://www.w3.org/1999/xlink" x="0px" y="0px"
	 viewBox="0 0 305 305" style="enable-background:new 0 0 305 305;" xml:space="preserve">
<style type="text/css">
	.st0{fill:#7DB87C;}
	.st1{fill:#1E1E1E;}
	.st2{fill:#9EE299;}
	.st3{fill:#F4B387;}
	.st4{fill:#DB9463;}
	.st5{fill:#493B3A;}
	.st6{fill:#D36857;}
	.st7{fill:#FBE7DB;}
	.st8{fill:none;}
	.st9{fill:#991C1F;}
	.st10{fill:#EFEFEF;}
	.st11{fill:#EDD9CE;}
	.st12{fill:#FC4B34;}
	.st13{fill:#009393;}
	.st14{fill:#22A2A6;}
	.st15{fill:#0C7381;}
	.st16{fill:#FFFFFF;}
	.st17{clip-path:url(#SVGID_2_);fill:#E0E0E0;}
	.st18{clip-path:url(#SVGID_4_);fill:#E0E0E0;}
	.st19{clip-path:url(#SVGID_6_);fill:#E0E0E0;}
	.st20{clip-path:url(#SVGID_8_);fill:#E0E0E0;}
	.st21{fill:none;stroke:#0C7381;stroke-width:0.9856;stroke-miterlimit:10;}
	.st22{fill:#E0E0E0;}
	.st23{opacity:0.4;fill:#EFB4B4;enable-background:new    ;}
	.st24{clip-path:url(#SVGID_10_);}
	.st25{fill:#211C2A;}
	.st26{clip-path:url(#SVGID_12_);}
</style>
<circle class="st0" cx="152.5" cy="152.5" r="152.5"/>
<path class="st1" d="M99.2,54.6c-6.1,23.3-6.8,47.9,0.1,70c0.6-0.9,0.6,4.3,3.8,7.9c5.9,7,15.5,9.7,24.6,10.9
	c19.8,2.8,53.8,2.5,73.4-1.3c0.3-0.6,1.4-30.2,2.2-28.6c0.3-10.5,4-37.4,1.6-47.8c-1.3-5.6-0.7-11.6-3.9-16.3
	c-2.4-3.6-15.2-29.9-55.3-25.9C107.6,27.4,100.9,50.7,99.2,54.6z"/>
<g>
	<path class="st2" d="M24.3,152.3l-0.4-2.1c2.5-3.6,4.1-6.2,5.1-8c1.8-3.5,2.5-6.2,2.1-8.3c-0.2-1-0.7-1.8-1.4-2.4s-1.7-0.7-2.9-0.5
		c-1,0.2-1.8,0.7-2.4,1.4c-0.6,0.8-0.9,1.7-0.9,2.9l-2.3-0.5c-0.1-1.7,0.4-3.1,1.4-4.3s2.3-1.9,3.9-2.2c2-0.4,3.6-0.1,4.9,0.8
		c1.3,0.9,2.1,2.1,2.4,3.7c0.3,1.4,0.2,3.1-0.3,4.8c-0.4,1.8-1.1,3.5-2.1,5.1c-1,1.7-1.7,3-2.3,3.8c-0.6,0.9-1.2,1.7-1.9,2.6l10.3-2
		l0.5,2.4L24.3,152.3z"/>
	<path class="st2" d="M50.7,147.3l-1.1-5.6l-10.3,2l-0.4-1.8l6.4-16.7l2.9-0.6l-6.1,15.9l7-1.3l-1.2-6.2l2.6-0.5l1.2,6.2l3.1-0.6
		l0.5,2.6l-3.1,0.6l1.1,5.6L50.7,147.3z"/>
	<path class="st2" d="M68.3,143.9l-1.1-5.6l-10.3,2l-0.4-1.8l6.4-16.7l2.9-0.6l-6.1,15.9l7-1.3l-1.2-6.2L68,129l1.2,6.2l3.1-0.6
		l0.5,2.6l-3.1,0.6l1.1,5.6L68.3,143.9z"/>
	<path class="st2" d="M82.3,130.4l-0.4-2.2l6-1.2l-1.2-6.1l2.4-0.5l1.2,6.1l6.1-1.2l0.4,2.2l-6.1,1.2l1.2,6.2l-2.4,0.5l-1.2-6.2
		L82.3,130.4z"/>
</g>
<polygon class="st3" points="139.2,126.2 137.1,155.9 150.4,166.8 166.2,156.7 161.6,126.2 "/>
<path class="st4" d="M138.3,137.1c0,0,15.9,2.8,24.8-0.8l-1.5-10.1h-22.4L138.3,137.1z"/>
<g>
	<path class="st3" d="M121,92.4c-0.8-2.5-2-5.1-4-6.8c-2-1.7-5.2-2.3-7.4-0.8c-1.2,0.8-1.9,2.2-2.4,3.5c-1.5,4.3-0.6,9.3,2.2,12.9
		c0.6,0.8,1.4,1.5,2.3,1.9s1.9,0.4,2.9,0.3c3.1-0.3,6.2-1.3,8.8-2.9"/>
	<path class="st4" d="M115.6,89.7c-1.4-0.8-3.3-0.8-4.3,0.4c-0.4,0.4-0.6,0.9-0.8,1.4c-0.6,1.9-0.1,4.2,1.3,5.6s3.7,2,5.6,1.3
		c-1.1,0.4,0.3-4.6,0.4-4.8C118.3,91.9,117.2,90.6,115.6,89.7z"/>
</g>
<g>
	<path class="st3" d="M180.5,92.4c0.8-2.5,2-5.1,4-6.8c2-1.7,5.2-2.3,7.4-0.8c1.2,0.8,1.9,2.2,2.4,3.5c1.5,4.3,0.6,9.3-2.2,12.9
		c-0.6,0.8-1.4,1.5-2.3,1.9c-0.9,0.4-1.9,0.4-2.9,0.3c-3.1-0.3-6.2-1.3-8.8-2.9"/>
	<path class="st4" d="M185.9,89.7c1.4-0.8,3.3-0.8,4.3,0.4c0.4,0.4,0.6,0.9,0.8,1.4c0.6,1.9,0.1,4.2-1.3,5.6c-1.4,1.4-3.7,2-5.6,1.3
		c1.1,0.4-0.3-4.6-0.4-4.8C183.2,91.9,184.3,90.6,185.9,89.7z"/>
</g>
<path class="st3" d="M151,43c-32.1,0-33.9,26.3-33.4,44.9s3.1,30.9,7.7,35.2s14.4,7,14.4,7c4.2,3.1,10.9,3.3,11.3,3.4l0,0l0,0l0,0
	l0,0c0.7,0,7.1-0.3,11.3-3.4c0,0,9.7-2.7,14.4-7c4.6-4.3,7.2-16.6,7.7-35.2S183.1,43,151,43z"/>
<path class="st5" d="M124.3,79.5c0,0,4.4-3.1,10.3-2.8c3.8,0.2,6.9,1.3,8.7,2c1.6,0.7,2.9-1.4,1.7-2.5l0,0
	c-1.6-1.4-8.9-3.4-11.6-3.2C130.6,73.3,126.7,75,124.3,79.5z"/>
<path class="st5" d="M178.9,79.5c0,0-4.4-3.1-10.3-2.8c-3.8,0.2-6.9,1.3-8.7,2c-1.6,0.7-2.9-1.4-1.7-2.5l0,0
	c1.6-1.4,8.9-3.4,11.6-3.2C172.6,73.3,176.4,75,178.9,79.5z"/>
<path class="st6" d="M143.3,116.9c0,0,3.8-1.6,8.6-1c0,0,4.8-0.9,9.4,1c0,0-3.5,5-9,5C146.8,122,143.3,116.9,143.3,116.9z"/>
<path class="st4" d="M161.3,114.4l0.7,1.8c-3.3,1.8-9.7,1.8-9.7,1.8s-6.5-0.1-9.8-1.8l0.7-1.8c0,0-3.8,1.1-1.8,5.1l0.7-1.9
	c0,0,4.5,1.9,10.2,1.9s10.1-1.9,10.1-1.9l0.6,1.9C165.1,115.5,161.3,114.4,161.3,114.4z"/>
<path class="st7" d="M222.4,250c-13.2-4.7-29.5-39.3-29.5-39.3l-9.1-21.4l-20.2-42.6c34.2-0.3,46.2,8.3,46.2,8.3
	c3.7,41.6,12,54,12,54l6.5,4.7L222.4,250z"/>
<path class="st7" d="M97.7,236.7c4.1-2.2,0.6-5.8,0.6-5.8c5-21,19.4-41.7,19.4-41.7l20-42.6c-34.2-0.3-46.1,8.3-46.1,8.3
	c-4.1,37.1-27.8,64.6-27.5,93.3L97.7,236.7z"/>
<g>
	<path class="st8" d="M152.5,0C68.3,0,0,68.3,0,152.5c0,64.8,40.4,120.2,97.4,142.2c4.4-22.5,22.7-44.8,22.7-44.8s10.3,5.1,30.9,5.1
		c20.5,0,32.6-5,32.6-5s18.4,21.6,22.6,45.2C264,273.5,305,217.8,305,152.5C305,68.3,236.7,0,152.5,0z"/>
</g>
<g>
	<path class="st8" d="M183.6,250c0,0-12.1,5-32.6,5c-6.6,0-12.2-0.5-16.7-1.3l3.3,1.3c-7.2,18.9-31.3,16.2-31.4,16.2
		c-3.7,7.1-7.2,15.3-8.8,23.5c17.1,6.6,35.7,10.3,55.1,10.3c18.9,0,37.1-3.5,53.8-9.8C202,271.6,183.6,250,183.6,250z"/>
</g>
<g>
	<path class="st8" d="M206.3,295.2c-4.2-23.6-22.6-45.3-22.6-45.3s-10.3,4.3-28,5v50C173.5,304.6,190.5,301.2,206.3,295.2z"/>
	<path class="st8" d="M146.3,254.9c-17.4-0.7-26.2-5-26.2-5s-18.3,22.3-22.7,44.8c15.2,5.9,31.7,9.4,48.8,10.1L146.3,254.9
		L146.3,254.9z"/>
</g>
<path class="st7" d="M193.9,196.1c0-26.9-5.4-47.7-5.4-47.7l-17.5-3.1l-20.3,17.9l0,0l0,0l-20.3-17.9l-17.5,3.1
	c0,0-5.4,20.8-5.4,47.7c0,8.4,7.5,60.6-10.2,98.6c16.1,6.2,33.4,9.8,51.6,10.2l0,0c19.6,0.3,38.6-2.6,55.7-9.2
	C187.1,257.8,193.9,204.5,193.9,196.1z"/>
<g>
	<path class="st9" d="M178.5,209.7c0,0-9.8-6.7-9.9-0.7C168.6,215,178.5,209.7,178.5,209.7z"/>
	<path class="st9" d="M178.5,209.7c0,0,2.8-11.5-2.8-9.5C170,202.3,178.5,209.7,178.5,209.7z"/>
	<path class="st9" d="M178.4,209.7c0,0,11.9,0.1,8.6-4.9C183.7,199.7,178.4,209.7,178.4,209.7z"/>
	<path class="st9" d="M178.5,209.5c0,0,2.1,11.3,6.3,7.3C189,212.7,178.5,209.5,178.5,209.5z"/>
	<path class="st9" d="M178.5,209.5c0,0-10.2,5.3-5.1,8.1C178.5,220.4,178.5,209.5,178.5,209.5z"/>
</g>
<g>
	<path class="st9" d="M167.8,178.1c0,0-9.8-6.7-9.9-0.7C157.9,183.4,167.8,178.1,167.8,178.1z"/>
	<path class="st9" d="M167.8,178.1c0,0,2.8-11.5-2.8-9.5S167.8,178.1,167.8,178.1z"/>
	<path class="st9" d="M167.7,178.1c0,0,11.9,0.1,8.6-4.9C173,168.1,167.7,178.1,167.7,178.1z"/>
	<path class="st9" d="M167.8,177.9c0,0,2.1,11.3,6.3,7.3C178.3,181.1,167.8,177.9,167.8,177.9z"/>
	<path class="st9" d="M167.8,177.9c0,0-10.2,5.3-5.1,8.1S167.8,177.9,167.8,177.9z"/>
</g>
<path class="st3" d="M259,179.4c0,0,1.1-5.8,7.7-8.2c18.8-6.8,18.1-20.8,14.7-20.7c-2.6,0.1-1.2,4.1-4.2,7.7
	c-2.7,3.3-4.9,2.7-4.9,2.7c5.7-6,4-19.3,0.4-19.8c-4.9-0.7-2.7,7-5.6,13.2c-1.8,3.9-3.8,4.3-3.8,4.3c4.4-7.6,0.4-16.5-2.8-16.8
	c-1.2-0.1-2.1,0.9-2.3,2.2c-0.1,0.6-0.1,1.4,0.1,2.1c0.2,1.1,0.5,1.9,0.8,3.1c0.7,3,1.1,6.8-2.5,10c-2.9,2.6-7.2,1.5-7.8-1.5
	c-0.7-3.2,4.7-5.1,4.4-8.8c-0.3-4.2-4.6-5.2-5.1-3.1c-0.5,2.1-0.6,5.5-5.2,8.9c-3.5,2.7-4.1,6.2-3.9,9.1c0.6,5.6,4.5,8.4,4.5,8.4
	L259,179.4z"/>
<path class="st10" d="M171,145.3l-4.5-11c0,0-11.6,5.5-13,11.7s-2.8,17.2-2.8,17.2L171,146V145.3z"/>
<path class="st1" d="M204.6,97.7c-1.5,5.3-0.9,66.7-6.1,82.5c-3.2,9.9-25.4,41.1-22.7,48.9c-13.9-8.3-11.9-48-8.3-65.3
	c1.2-5.7,0.5-25.7,2.2-33.5"/>
<polygon class="st11" points="105.7,268.1 104.9,271.8 130,272.9 156.8,296.2 167.9,282.1 159.4,267.5 "/>
<g>
	<path class="st12" d="M156.9,292l-36.7-31.8l41-47.5l37.3,32.1C198.4,244.9,157.5,283.7,156.9,292z"/>
	<path class="st13" d="M203.2,234.3L157.1,295L118,261.3c0,0-1.3-4.8,1.5-8.2c2.3-2.9,6.7-3.7,8.8-1.9c2,1.8,33.6,25.4,33.6,25.4
		C154.3,278.9,203.2,234.3,203.2,234.3z"/>
	<polygon class="st14" points="167.3,286.1 127.5,251.8 168.5,204.3 206.2,236.5 	"/>
	<path class="st15" d="M168.5,204.3c0,0-4-2.9-8.3,0.6L119,253.6c0,0,3-4.7,9.1-2.2L168.5,204.3z"/>
	<path class="st16" d="M164.8,283.9c0.1,0-37.2-32-37.2-32s-4.8-1.5-7.3,1.5c-2.8,3.5-0.1,6.9-0.1,6.9l36.7,31.8
		C156.9,292,158.3,286.9,164.8,283.9z"/>
	<g>
		<g>
			<g>
				<g>
					<defs>
						<path id="SVGID_1_" d="M167.2,260.4c0.1-0.1-46.9,14.4-46.9,14.4s-4.1,3.6-2.6,7.4c1.7,4.3,5.8,3.4,5.8,3.4l46.5-14
							C169.9,271.4,166.3,267.4,167.2,260.4z"/>
					</defs>
					<clipPath id="SVGID_2_">
						<use xlink:href="#SVGID_1_"  style="overflow:visible;"/>
					</clipPath>
					
						<rect x="144.1" y="244.8" transform="matrix(0.653 -0.7574 0.7574 0.653 -154.1899 203.2069)" class="st17" width="1.1" height="50.2"/>
				</g>
			</g>
		</g>
		<g>
			<g>
				<g>
					<defs>
						<path id="SVGID_3_" d="M165,259.9c0.1-0.1-46.9,14.4-46.9,14.4s-4.1,3.6-2.6,7.4c1.7,4.3,5.8,3.4,5.8,3.4l46.5-14
							C167.8,270.9,164.2,267,165,259.9z"/>
					</defs>
					<clipPath id="SVGID_4_">
						<use xlink:href="#SVGID_3_"  style="overflow:visible;"/>
					</clipPath>
					
						<rect x="142.6" y="246.6" transform="matrix(0.653 -0.7574 0.7574 0.653 -156.1017 202.7456)" class="st18" width="1.1" height="50.2"/>
				</g>
			</g>
		</g>
		<g>
			<g>
				<g>
					<defs>
						<path id="SVGID_5_" d="M162.9,259.4c0.1-0.1-46.9,14.4-46.9,14.4s-4.1,3.6-2.6,7.4c1.7,4.3,5.8,3.4,5.8,3.4l46.5-14
							C165.4,270.3,161.8,266.4,162.9,259.4z"/>
					</defs>
					<clipPath id="SVGID_6_">
						<use xlink:href="#SVGID_5_"  style="overflow:visible;"/>
					</clipPath>
					
						<rect x="141" y="248.3" transform="matrix(0.653 -0.7574 0.7574 0.653 -157.9636 202.0708)" class="st19" width="1.1" height="50.2"/>
				</g>
			</g>
		</g>
		<g>
			<g>
				<g>
					<defs>
						<path id="SVGID_7_" d="M160.8,259c0.1-0.1-46.9,14.4-46.9,14.4s-4.1,3.6-2.6,7.4c1.7,4.3,5.8,3.4,5.8,3.4l46.5-14
							C163.4,270,159.8,266.1,160.8,259z"/>
					</defs>
					<clipPath id="SVGID_8_">
						<use xlink:href="#SVGID_7_"  style="overflow:visible;"/>
					</clipPath>
					
						<rect x="139.6" y="250" transform="matrix(0.653 -0.7574 0.7574 0.653 -159.6934 201.6111)" class="st20" width="1.1" height="50.2"/>
				</g>
			</g>
		</g>
	</g>
	<polygon class="st21" points="169,213.3 197.6,237.4 166.8,276.5 136.8,250.9 	"/>
</g>
<path class="st7" d="M239.7,171.4c0,0-7.2,39.3-21,50.2l3.8,28.4c11.2,2.8,22.1-11.5,29.6-30.2c10.9-27.1,12.5-35.3,12.5-35.3
	C258.2,170.6,239.7,171.4,239.7,171.4z"/>
<g>
	<path class="st2" d="M228.4,83.9l4.2-5.5l1.8-0.5l5.7,22.2l-2.5,0.7l-4.8-18.6l-2.6,3.4L228.4,83.9z"/>
	<path class="st2" d="M240.4,80.8l4.2-5.5l1.8-0.5l5.7,22.2l-2.5,0.7l-4.8-18.6l-2.6,3.4L240.4,80.8z"/>
</g>
<g>
	<path class="st2" d="M37.5,187.9l0.6-2.2l14.3,3.7l-0.6,2.2L37.5,187.9z M36,193.6l0.6-2.2l14.3,3.7l-0.6,2.2L36,193.6z"/>
</g>
<g>
	<path class="st2" d="M60.7,79.2l-1-2.2l7.1-3.2l1,2.2L60.7,79.2z"/>
</g>
<path class="st4" d="M252.4,160.5c8.2-0.1,14.3,6,14.3,6s-4.2-6.7-11.2-6.7c0,0-0.5,0.2-1.3,0.4
	C253.4,160.5,252.4,160.5,252.4,160.5z"/>
<g>
	<path class="st16" d="M247.6,127.7l5.9,22.9c0.2,0.7,1.5,0.9,3,0.5s2.6-1.2,2.4-1.9l-5.9-22.9L247.6,127.7z"/>
	<ellipse transform="matrix(0.968 -0.2509 0.2509 0.968 -23.8579 66.8625)" class="st22" cx="250.3" cy="127" rx="2.8" ry="1.2"/>
</g>
<path class="st4" d="M268.6,158.8c0,0,2.3-2.4,3.2-5.6c0.7-2.6,0.2-7.2,0.2-7.2s-0.7,4.4-1.2,6.6
	C270.3,155.2,268.6,158.8,268.6,158.8z"/>
<path class="st3" d="M167.9,243.6l8.5,4.9c10,1.8,15.3,11.9,9,14.7c0,0,0.7,4.7-3.6,4.6c0,0,0.8,4.4-4,5.1c0,0-0.3-5.2-6.2-7.3
	c0,0-10.4,3.9-19.6-2.4l-10-16.5C141.9,246.6,156.7,248.4,167.9,243.6z"/>
<path class="st7" d="M154.1,242.8c0,0-43,5.9-56.4-6.1l-33.5,11.6c0.5,11.5,25.4,20,45.4,21.8c29,2.6,45.1,0.9,45.1,0.9
	C161.7,259.5,154.1,242.8,154.1,242.8z"/>
<path class="st3" d="M167.9,243.6c19.3-9,28.1,4.8,24.8,7.4c-2.2,1.7-4.8-2.9-9.4-3.6c-4.5-0.6-6.9,1-6.9,1"/>
<path class="st4" d="M184.2,261.3c0,0-0.7-3-2.6-4.7c-3-2.6-6.3-2.6-6.3-2.6s3.6,1.4,5.6,3.3C182.4,258.8,184.2,261.3,184.2,261.3z"
	/>
<path class="st4" d="M180.7,265.4c0,0-0.3-2.8-2.2-4.5s-4.7-1.7-4.7-1.7s2.4,1.1,4,2.4C179.3,262.9,180.7,265.4,180.7,265.4z"/>
<ellipse class="st23" cx="171.5" cy="101.5" rx="9.2" ry="3.7"/>
<ellipse class="st23" cx="133.8" cy="102.5" rx="9.2" ry="3.7"/>
<g>
	<path class="st4" d="M152.5,108.4c3.8-0.2,4-2.7,4-2.7c-0.1-0.1-2.7,1.1-3.7,1.2c-1.6,0.1-3.8-1-4.9-1.4
		C148.1,106.8,149.9,108.5,152.5,108.4z"/>
	<path class="st4" d="M158.7,103.7c0.9,0.2,2.3,1.2,1.7,2.7c-0.6,1.9-1.8,1.8-2.2,1.6c0-0.1,1-1,1.4-1.9
		C160.1,104.8,159,104,158.7,103.7z"/>
	<path class="st4" d="M145.9,103.7c-0.9,0.2-2.3,1.2-1.7,2.7c0.6,1.9,1.8,1.8,2.2,1.6c0-0.1-1-1-1.4-1.9
		C144.5,104.8,145.6,104,145.9,103.7z"/>
</g>
<g>
	<g>
		<path class="st16" d="M176.5,89c0,0-4.2,7.5-16.1,4.4c0,0-0.4-9.5,3.5-12.1S175.5,77.1,176.5,89z"/>
		<g>
			<g>
				<g>
					<g>
						<g>
							<g>
								<defs>
									<path id="SVGID_9_" d="M177.3,90.2c0,0-5,6.3-16.9,3.2c0,0-0.4-9.5,3.5-12.1S176.3,78.2,177.3,90.2z"/>
								</defs>
								<clipPath id="SVGID_10_">
									<use xlink:href="#SVGID_9_"  style="overflow:visible;"/>
								</clipPath>
								<g class="st24">
									<g>
										<g>
											
												<ellipse transform="matrix(2.383940e-02 -0.9997 0.9997 2.383940e-02 77.1704 254.3378)" class="st25" cx="168.8" cy="87.7" rx="5.7" ry="5.7"/>
										</g>
									</g>
									
										<ellipse transform="matrix(0.9935 -0.114 0.114 0.9935 -8.6009 20.1983)" class="st16" cx="172.3" cy="85.3" rx="2.2" ry="2.2"/>
								</g>
							</g>
						</g>
					</g>
				</g>
			</g>
		</g>
	</g>
	<path class="st3" d="M160.4,93.1c0,0-0.1-8.3,8.4-10c8.1-1.6,7.7,5.9,7.7,5.9s4.2-9.6-0.8-10.4s-9.4-2-11-0.9
		c-1.7,1.1-5.4,3.6-5.8,6.6C158.5,87.3,160.4,93.1,160.4,93.1z"/>
	<path class="st4" d="M159.5,92.8c0,0-0.6-4.4,3.6-8.1c3.5-3,7.5-3.5,7.5-3.5s-4-0.4-8.2,3.5C158.6,88.3,159.5,92.8,159.5,92.8z"/>
</g>
<g>
	<g>
		<path class="st16" d="M139.5,81.4c3.9,2.6,3.5,12.1,3.5,12.1c-12,3.1-16.1-4.4-16.1-4.4C127.9,77.1,135.7,78.7,139.5,81.4z"/>
		<g>
			<g>
				<g>
					<g>
						<g>
							<g>
								<defs>
									<path id="SVGID_11_" d="M139.5,81.4c3.9,2.6,3.5,12.1,3.5,12.1c-12,3.1-16.9-3.2-16.9-3.2
										C127.1,78.2,135.7,78.7,139.5,81.4z"/>
								</defs>
								<clipPath id="SVGID_12_">
									<use xlink:href="#SVGID_11_"  style="overflow:visible;"/>
								</clipPath>
								<g class="st26">
									<g>
										<g>
											
												<ellipse transform="matrix(0.9997 -2.383940e-02 2.383940e-02 0.9997 -2.0501 3.2312)" class="st25" cx="134.5" cy="87.6" rx="5.7" ry="5.7"/>
										</g>
									</g>
									
										<ellipse transform="matrix(0.114 -0.9935 0.9935 0.114 37.7574 213.0255)" class="st16" cx="138.3" cy="85.3" rx="2.2" ry="2.2"/>
								</g>
							</g>
						</g>
					</g>
				</g>
			</g>
		</g>
	</g>
	<path class="st3" d="M143,93.1c0,0,0.1-8.3-8.4-10c-8.1-1.6-7.7,5.9-7.7,5.9s-4.2-9.6,0.8-10.4s9.4-2,11-0.9s5.4,3.6,5.8,6.6
		S143,93.1,143,93.1z"/>
	<path class="st4" d="M143.9,92.8c0,0,0.6-4.4-3.6-8.1c-3.5-3-7.5-3.5-7.5-3.5s4-0.4,8.2,3.5C144.8,88.3,143.9,92.8,143.9,92.8z"/>
</g>
<path class="st1" d="M121.8,40.3c-1.1,1.7-1.2,3.8-1.3,5.8c-0.1,2.8-0.2,5.6,0.7,8.2c1,2.9,40.2,14.4,40.1,13.8
	c8.8,1.4,17.7,2.1,26.6,2.1c2.9-6.5,0.9-14.2-2.8-20.2c-3.3-5.4-7.8-9.9-13.2-13.2c-5-3.1-10.7-4.9-16.5-6
	c-8.8-1.6-18.3-1.1-26.3,2.9c-3.9,1.9-7.5,5-8.5,9.2"/>
<path class="st10" d="M130.4,145.3l4.5-11c0,0,11.6,5.5,13,11.7s2.8,17.2,2.8,17.2L130.4,146V145.3z"/>
<path class="st9" d="M150.7,163.2c0,0,3.2-15.4,4.7-17.6s11.7-9.8,11.7-9.8l0.3,0.8c0,0-10.3,7.2-11.3,9.5S150.7,163.2,150.7,163.2z
	"/>
<path class="st9" d="M150.7,163.2c0,0-3.2-15.4-4.7-17.6s-11.7-9.8-11.7-9.8l-0.3,0.8c0,0,10.3,7.2,11.3,9.5
	S150.7,163.2,150.7,163.2z"/>
<g>
	<path class="st9" d="M130.1,182.3c0,0-9.8-6.7-9.9-0.7C120.1,187.6,130.1,182.3,130.1,182.3z"/>
	<path class="st9" d="M130,182.3c0,0,2.8-11.5-2.8-9.5C121.5,174.9,130,182.3,130,182.3z"/>
	<path class="st9" d="M130,182.3c0,0,11.9,0.1,8.6-4.9C135.3,172.3,130,182.3,130,182.3z"/>
	<path class="st9" d="M130.1,182.1c0,0,2.1,11.3,6.3,7.3C140.5,185.3,130.1,182.1,130.1,182.1z"/>
	<path class="st9" d="M130.1,182.1c0,0-10.2,5.3-5.1,8.1C130.1,193,130.1,182.1,130.1,182.1z"/>
</g>
<g>
	<path class="st9" d="M148.3,200.6c0,0-9.8-6.7-9.9-0.7C138.4,205.9,148.3,200.6,148.3,200.6z"/>
	<path class="st9" d="M148.3,200.6c0,0,2.8-11.5-2.8-9.5C139.8,193.2,148.3,200.6,148.3,200.6z"/>
	<path class="st9" d="M148.2,200.6c0,0,11.9,0.1,8.6-4.9C153.5,190.6,148.2,200.6,148.2,200.6z"/>
	<path class="st9" d="M148.3,200.4c0,0,2.1,11.3,6.3,7.3C158.8,203.6,148.3,200.4,148.3,200.4z"/>
	<path class="st9" d="M148.3,200.4c0,0-10.2,5.3-5.1,8.1C148.3,211.4,148.3,200.4,148.3,200.4z"/>
</g>
<g>
	<path class="st9" d="M112.8,163.8c0,0-9.8-6.7-9.9-0.7C102.9,169.2,112.8,163.8,112.8,163.8z"/>
	<path class="st9" d="M112.8,163.9c0,0,2.8-11.5-2.8-9.5S112.8,163.9,112.8,163.9z"/>
	<path class="st9" d="M112.7,163.9c0,0,11.9,0.1,8.6-4.9S112.7,163.9,112.7,163.9z"/>
</g>
<path class="st1" d="M94.9,102.5c1.5,5.3,5.5,65.9,9.3,76.6c2.8,7.8,21.3,42.2,18.7,50.1c13.9-8.3,15.2-45.8,11.7-63.1
	c-1.2-5.7-3.8-27.9-5.6-35.7"/>
</svg>
